<svg xmlns="http://www.w3.org/2000/svg" xmlns:xlink="http://www.w3.org/1999/xlink" width="64" zoomAndPan="magnify" viewBox="0 0 48 48" height="64" preserveAspectRatio="xMidYMid meet" version="1.0"><defs><clipPath id="6b4b94b5d7"><path d="M 1 6.78125 L 29 6.78125 L 29 36 L 1 36 Z M 1 6.78125 " clip-rule="nonzero"/></clipPath><clipPath id="5d8ae5bd99"><path d="M 10 6.78125 L 47.507812 6.78125 L 47.507812 47.019531 L 10 47.019531 Z M 10 6.78125 " clip-rule="nonzero"/></clipPath></defs><g clip-path="url(#6b4b94b5d7)"><path fill="#000000" d="M 12.996094 22.125 L 28.269531 6.78125 L 19.277344 6.78125 L 3.273438 22.855469 C 0.492188 25.648438 0.566406 29.164062 3.273438 31.886719 L 6.964844 35.589844 C 4.023438 29.355469 9.230469 25.90625 12.996094 22.125 Z M 12.996094 22.125 " fill-opacity="1" fill-rule="nonzero"/></g><g clip-path="url(#5d8ae5bd99)"><path fill="#000000" d="M 46.945312 47.191406 L 27.105469 27.265625 L 47.503906 6.78125 L 38.511719 6.78125 L 12.890625 32.511719 C 9.199219 36.21875 9.445312 38.078125 12.890625 41.539062 L 18.515625 47.191406 L 27.507812 47.191406 L 17.386719 37.027344 L 22.609375 31.78125 L 37.953125 47.191406 Z M 46.945312 47.191406 " fill-opacity="1" fill-rule="nonzero"/></g><path stroke-linecap="butt" transform="matrix(0.734694, 0, 0, 0.734694, 16.476734, 6.223349)" fill="none" stroke-linejoin="miter" d="M -0.000233383 0.49884 L 20.480236 0.49884 " stroke="#ffffff" stroke-width="1" stroke-opacity="1" stroke-miterlimit="4"/></svg>